<svg width="44" height="44" viewBox="0 0 44 44" fill="none" xmlns="http://www.w3.org/2000/svg">
<path d="M28.75 6.87446C28.7499 5.57363 28.3807 4.29953 27.6854 3.20013C26.9901 2.10073 25.9971 1.22117 24.8219 0.663588C23.6466 0.10601 22.3372 -0.106694 21.0459 0.0501796C19.7546 0.207054 18.5342 0.727068 17.5267 1.54982C16.5191 2.37258 15.7656 3.46431 15.3537 4.69821C14.9418 5.93211 14.8885 7.25755 15.1998 8.52056C15.5112 9.78358 16.1745 10.9323 17.1127 11.8334C18.0509 12.7345 19.2255 13.3509 20.5 13.6111V37.946C20.5002 38.3113 20.5729 38.673 20.714 39.0099L21.5794 41.0724C21.6084 41.1255 21.6511 41.1698 21.7031 41.2006C21.7552 41.2315 21.8145 41.2478 21.875 41.2478C21.9355 41.2478 21.9948 41.2315 22.0469 41.2006C22.0989 41.1698 22.1416 41.1255 22.1706 41.0724L23.036 39.0099C23.1771 38.673 23.2498 38.3113 23.25 37.946V13.6111C24.8018 13.2922 26.1961 12.448 27.198 11.2209C28.1999 9.99372 28.748 8.45865 28.75 6.87446ZM23.9375 6.87446C23.5296 6.87446 23.1308 6.7535 22.7916 6.52687C22.4525 6.30024 22.1881 5.97812 22.032 5.60124C21.8759 5.22437 21.835 4.80967 21.9146 4.40959C21.9942 4.0095 22.1906 3.642 22.4791 3.35355C22.7675 3.06511 23.135 2.86867 23.5351 2.78909C23.9352 2.70951 24.3499 2.75035 24.7268 2.90646C25.1037 3.06256 25.4258 3.32692 25.6524 3.6661C25.879 4.00527 26 4.40404 26 4.81196C26 5.35897 25.7827 5.88357 25.3959 6.27037C25.0091 6.65716 24.4845 6.87446 23.9375 6.87446Z" fill="white"/>
</svg>
